# xmcd CD database file
#
# Track frame offsets:
#	150
#	22847
#	56755
#	97166
#	129845
#	162977
#	190543
#	219797
#	254305
#	286808
#	314078
#
# Disc length: 4544 seconds
#
# Revision: 0
# Processed by: cddbd v1.5.1PL0 Copyright (c) Steve Scherf et al.
# Submitted via: CDex 1.51
#
DISCID=9211be0b
DTITLE=Dexter Gordon - The Complete Trio and Quartet Studio Recordings Disc 1
DYEAR=1974
DGENRE=Jazz
TTITLE0=Some Other Blues - Take 1
TTITLE1=Some Other Blues - Take 2
TTITLE2=Strollin'
TTITLE3=Old Folks - Take 1
TTITLE4=Old Folks - Take 2
TTITLE5=Mister PC - Take 1
TTITLE6=Mister PC - Take 2
TTITLE7=Days Of Wines and Roses
TTITLE8=There'll Never Be Another You
TTITLE9=The Apartment - Take 1
TTITLE10=The Apartment - Take 2
EXTD=YEAR: 1974
EXTT0=
EXTT1=
EXTT2=
EXTT3=
EXTT4=
EXTT5=
EXTT6=
EXTT7=
EXTT8=
EXTT9=
EXTT10=
PLAYORDER=
